<svg width="130" height="30" viewBox="0 0 130 30" fill="none" xmlns="http://www.w3.org/2000/svg">
<path d="M2.664 28V2.44H7.632V28H2.664Z" fill="black"/>
<path d="M34.4568 2.44V28H29.5248V17.092H17.9328V28H12.9648V2.44H17.9328V12.772H29.5248V2.44H34.4568ZM39.141 20.944V9.136H43.965V19.9C43.965 21.34 44.229 22.432 44.757 23.176C45.285 23.896 46.065 24.256 47.097 24.256C47.721 24.256 48.333 24.136 48.933 23.896C49.557 23.632 50.121 23.248 50.625 22.744C51.153 22.24 51.597 21.604 51.957 20.836V9.136H56.781V22.6C56.781 23.104 56.865 23.464 57.033 23.68C57.225 23.896 57.525 24.028 57.933 24.076V28C57.453 28.072 57.045 28.12 56.709 28.144C56.397 28.192 56.109 28.216 55.845 28.216C54.981 28.216 54.273 28.024 53.721 27.64C53.193 27.232 52.881 26.68 52.785 25.984L52.677 24.472C51.837 25.744 50.757 26.716 49.437 27.388C48.117 28.036 46.665 28.36 45.081 28.36C43.137 28.36 41.661 27.736 40.653 26.488C39.645 25.216 39.141 23.368 39.141 20.944ZM79.1069 28H74.2829V17.416C74.2829 15.904 74.0189 14.8 73.4909 14.104C72.9629 13.408 72.2309 13.06 71.2949 13.06C70.6469 13.06 69.9869 13.228 69.3149 13.564C68.6669 13.9 68.0789 14.368 67.5509 14.968C67.0229 15.544 66.6389 16.216 66.3989 16.984V28H61.5749V9.136H65.9309V12.628C66.4109 11.812 67.0229 11.128 67.7669 10.576C68.5109 10 69.3629 9.568 70.3229 9.28C71.3069 8.968 72.3389 8.812 73.4189 8.812C74.5949 8.812 75.5549 9.028 76.2989 9.46C77.0669 9.868 77.6429 10.432 78.0269 11.152C78.4349 11.848 78.7109 12.64 78.8549 13.528C79.0229 14.416 79.1069 15.316 79.1069 16.228V28ZM94.5 27.028C94.092 27.196 93.6 27.388 93.024 27.604C92.448 27.82 91.824 27.988 91.152 28.108C90.504 28.252 89.844 28.324 89.172 28.324C88.284 28.324 87.468 28.168 86.724 27.856C85.98 27.544 85.38 27.052 84.924 26.38C84.492 25.684 84.276 24.784 84.276 23.68V12.844H81.792V9.136H84.276V3.016H89.1V9.136H93.06V12.844H89.1V22.06C89.124 22.708 89.304 23.176 89.64 23.464C89.976 23.752 90.396 23.896 90.9 23.896C91.404 23.896 91.896 23.812 92.376 23.644C92.856 23.476 93.24 23.332 93.528 23.212L94.5 27.028ZM105.549 28.36C104.037 28.36 102.669 28.108 101.445 27.604C100.221 27.076 99.1775 26.368 98.3135 25.48C97.4495 24.568 96.7775 23.536 96.2975 22.384C95.8415 21.208 95.6135 19.972 95.6135 18.676C95.6135 16.876 96.0095 15.232 96.8015 13.744C97.6175 12.256 98.7695 11.068 100.257 10.18C101.769 9.268 103.545 8.812 105.585 8.812C107.649 8.812 109.413 9.268 110.877 10.18C112.341 11.068 113.457 12.256 114.225 13.744C115.017 15.208 115.413 16.792 115.413 18.496C115.413 18.784 115.401 19.084 115.377 19.396C115.353 19.684 115.329 19.924 115.305 20.116H100.725C100.821 21.076 101.097 21.916 101.553 22.636C102.033 23.356 102.633 23.908 103.353 24.292C104.097 24.652 104.889 24.832 105.729 24.832C106.689 24.832 107.589 24.604 108.429 24.148C109.293 23.668 109.881 23.044 110.193 22.276L114.333 23.428C113.877 24.388 113.217 25.24 112.353 25.984C111.513 26.728 110.517 27.316 109.365 27.748C108.213 28.156 106.941 28.36 105.549 28.36ZM100.617 17.056H110.481C110.385 16.096 110.109 15.268 109.653 14.572C109.221 13.852 108.645 13.3 107.925 12.916C107.205 12.508 106.401 12.304 105.513 12.304C104.649 12.304 103.857 12.508 103.137 12.916C102.441 13.3 101.865 13.852 101.409 14.572C100.977 15.268 100.713 16.096 100.617 17.056ZM129.584 13.312C128.12 13.312 126.812 13.6 125.66 14.176C124.508 14.728 123.68 15.532 123.176 16.588V28H118.352V9.136H122.78V13.168C123.452 11.872 124.304 10.852 125.336 10.108C126.368 9.364 127.46 8.956 128.612 8.884C128.876 8.884 129.08 8.884 129.224 8.884C129.368 8.884 129.488 8.896 129.584 8.92V13.312Z" fill="#FF5858"/>
</svg>
